<?xml version="1.0" standalone="no"?>
<!DOCTYPE svg PUBLIC "-//W3C//DTD SVG 20010904//EN"
 "http://www.w3.org/TR/2001/REC-SVG-20010904/DTD/svg10.dtd">
<svg version="1.0" xmlns="http://www.w3.org/2000/svg"
 width="256.000000pt" height="256.000000pt" viewBox="0 0 256.000000 256.000000"
 preserveAspectRatio="xMidYMid meet">
<metadata>
Created by potrace 1.14, written by Peter Selinger 2001-2017
</metadata>
<g transform="translate(0.000000,256.000000) scale(0.100000,-0.100000)"
fill="#000000" stroke="none">
<path d="M1433 2512 c-12 -9 -27 -30 -33 -47 -13 -33 -20 -255 -10 -295 l6
-24 21 30 c12 17 45 77 72 134 58 118 65 164 28 198 -28 26 -54 28 -84 4z"/>
<path d="M888 2266 c-27 -20 -22 -61 11 -93 46 -47 191 -128 191 -108 0 10
-51 95 -88 148 -48 66 -78 81 -114 53z"/>
<path d="M1847 2151 c-30 -19 -58 -52 -121 -138 -37 -52 -41 -81 -8 -64 9 5
52 26 95 47 84 42 137 87 137 116 0 23 -35 58 -57 58 -10 0 -31 -9 -46 -19z"/>
<path d="M1185 1983 c-87 -45 -148 -131 -161 -224 -4 -24 -10 -46 -15 -47 -6
-2 -22 -14 -37 -27 -16 -13 -71 -37 -123 -55 -52 -17 -171 -68 -265 -115 -133
-65 -182 -95 -222 -134 -47 -46 -113 -138 -114 -158 0 -4 -4 -15 -9 -24 -4 -9
-12 -31 -16 -50 -10 -48 -10 -288 1 -384 4 -44 10 -96 11 -115 9 -106 19 -151
46 -207 74 -153 292 -264 569 -290 154 -15 593 -7 685 12 11 2 47 7 80 10 33
3 67 8 75 10 8 2 33 6 55 10 61 8 209 53 268 80 68 31 172 118 214 178 18 27
44 83 57 125 24 73 25 87 21 267 -2 105 -6 204 -9 220 -3 17 -8 75 -11 130 -6
110 -12 162 -20 176 -4 5 -8 19 -10 31 -7 35 -63 141 -96 181 -72 87 -208 143
-374 153 -101 5 -202 30 -202 48 0 25 -43 102 -77 138 -85 89 -218 115 -321
61z"/>
<path d="M607 1853 c-27 -30 -21 -61 15 -83 17 -10 35 -17 40 -14 5 3 20 7 33
10 14 2 36 6 50 8 37 7 135 36 135 40 0 12 -128 45 -205 53 -41 4 -53 2 -68
-14z"/>
</g>
</svg>
