<?xml version="1.0" encoding="UTF-8" standalone="no"?>
<!-- Created with Inkscape (http://www.inkscape.org/) -->
<svg xmlns:dc="http://purl.org/dc/elements/1.1/" xmlns:cc="http://creativecommons.org/ns#" xmlns:rdf="http://www.w3.org/1999/02/22-rdf-syntax-ns#" xmlns:svg="http://www.w3.org/2000/svg" xmlns="http://www.w3.org/2000/svg" xmlns:sodipodi="http://sodipodi.sourceforge.net/DTD/sodipodi-0.dtd" xmlns:inkscape="http://www.inkscape.org/namespaces/inkscape" width="259.68982" height="294.13644" id="svg9089" sodipodi:version="0.32" inkscape:version="0.46" version="1.0" sodipodi:docname="tv_cartoon.svg" inkscape:output_extension="org.inkscape.output.svg.inkscape">
  <defs id="defs3">
    <inkscape:perspective sodipodi:type="inkscape:persp3d" inkscape:vp_x="0 : 526.18109 : 1" inkscape:vp_y="0 : 1000 : 0" inkscape:vp_z="744.09448 : 526.18109 : 1" inkscape:persp3d-origin="372.04724 : 350.78739 : 1" id="perspective9095"/>
  </defs>
  <sodipodi:namedview inkscape:document-units="mm" id="base" pagecolor="#ffffff" bordercolor="#666666" borderopacity="1.0" inkscape:pageopacity="0.0" inkscape:pageshadow="2" inkscape:zoom="0.35" inkscape:cx="350" inkscape:cy="520" inkscape:current-layer="layer1" showgrid="false" inkscape:window-width="640" inkscape:window-height="662" inkscape:window-x="221" inkscape:window-y="143"/>
  <metadata id="metadata4">
    <rdf:RDF>
      <cc:Work rdf:about="">
        <dc:format>image/svg+xml</dc:format>
        <dc:type rdf:resource="http://purl.org/dc/dcmitype/StillImage"/>
      </cc:Work>
    </rdf:RDF>
  </metadata>
  <g inkscape:label="Layer 1" inkscape:groupmode="layer" id="layer1" transform="translate(-220.15509,-385.29396)">
    <path sodipodi:nodetypes="ccccc" id="path9087" d="M 443.74826,656.79395 C 448.74826,662.79395 455.23802,662.6314 453.24826,676.29395 C 432.09022,684.59446 388.24826,673.79395 388.24826,673.79395 L 388.74826,668.79395 L 443.74826,656.79395 z" style="opacity:1;fill:#8f5902;fill-opacity:1;fill-rule:nonzero;stroke:none;stroke-width:3;stroke-linecap:butt;stroke-linejoin:miter;marker:none;marker-start:none;marker-mid:none;marker-end:none;stroke-miterlimit:4;stroke-dasharray:none;stroke-dashoffset:0;stroke-opacity:1;visibility:visible;display:inline;overflow:visible;enable-background:accumulate"/>
    <path style="opacity:1;fill:#8f5902;fill-opacity:1;fill-rule:nonzero;stroke:none;stroke-width:3;stroke-linecap:butt;stroke-linejoin:miter;marker:none;marker-start:none;marker-mid:none;marker-end:none;stroke-miterlimit:4;stroke-dasharray:none;stroke-dashoffset:0;stroke-opacity:1;visibility:visible;display:inline;overflow:visible;enable-background:accumulate" d="M 250.11648,646.29395 C 245.11648,652.29395 238.62672,652.1314 240.61648,665.79395 C 261.77452,674.09446 305.61648,663.29395 305.61648,663.29395 L 305.11648,658.29395 L 250.11648,646.29395 z" id="path9085" sodipodi:nodetypes="ccccc"/>
    <path sodipodi:type="arc" style="opacity:1;fill:#8f5902;fill-opacity:1;fill-rule:nonzero;stroke:none;stroke-width:3;stroke-linecap:butt;stroke-linejoin:miter;marker:none;marker-start:none;marker-mid:none;marker-end:none;stroke-miterlimit:4;stroke-dasharray:none;stroke-dashoffset:0;stroke-opacity:1;visibility:visible;display:inline;overflow:visible;enable-background:accumulate" id="path9062" sodipodi:cx="381" sodipodi:cy="350.36218" sodipodi:rx="51" sodipodi:ry="31" d="M 432,350.36218 A 51,31 0 1 1 330,350.36218 A 51,31 0 1 1 432,350.36218 z" transform="translate(-30.883524,130.93177)"/>
    <path style="opacity:1;fill:#c17d11;fill-opacity:1;fill-rule:nonzero;stroke:none;stroke-width:3;stroke-linecap:butt;stroke-linejoin:miter;marker:none;marker-start:none;marker-mid:none;marker-end:none;stroke-miterlimit:4;stroke-dasharray:none;stroke-dashoffset:0;stroke-opacity:1;visibility:visible;display:inline;overflow:visible;enable-background:accumulate" d="M 246.68791,494.72252 C 276.68791,476.86538 438.83076,434.00824 467.40219,509.72253 C 497.40219,600.43681 464.86346,640.10614 455.97362,651.1511 C 430.25933,679.00824 303.11648,676.86538 234.54505,644.00824 C 203.11648,587.57967 230.62373,504.28453 246.68791,494.72252 z" id="path9046" sodipodi:nodetypes="ccccc"/>
    <path sodipodi:nodetypes="ccccc" id="path9048" d="M 254.95077,511.33577 C 276.52564,497.41628 393.13267,464.00949 413.68017,523.02816 C 435.25503,593.7392 411.85441,624.66112 405.46116,633.27058 C 386.96841,654.98499 295.53207,653.31465 246.21808,627.70277 C 223.61584,583.71717 243.39801,518.78928 254.95077,511.33577 z" style="opacity:1;fill:#555753;fill-opacity:1;fill-rule:nonzero;stroke:none;stroke-width:3;stroke-linecap:butt;stroke-linejoin:miter;marker:none;marker-start:none;marker-mid:none;marker-end:none;stroke-miterlimit:4;stroke-dasharray:none;stroke-dashoffset:0;stroke-opacity:1;visibility:visible;display:inline;overflow:visible;enable-background:accumulate"/>
    <path style="fill:#888a85;fill-opacity:1;fill-rule:nonzero;stroke:none;stroke-width:3;stroke-linecap:butt;stroke-linejoin:miter;marker:none;marker-start:none;marker-mid:none;marker-end:none;stroke-miterlimit:4;stroke-dashoffset:0;stroke-opacity:1;visibility:visible;display:inline;overflow:visible;enable-background:accumulate" d="M 346.90219,495.68624 C 329.04619,495.79985 309.65912,499.17758 293.49594,503.49874 C 277.33276,507.8199 263.7587,513.60237 259.99594,516.02999 C 261.18826,515.26074 259.2951,516.75223 257.68344,519.71749 C 256.07178,522.68275 254.21389,527.01629 252.52719,532.21749 C 249.87306,540.40191 247.64885,550.74014 246.55844,561.74874 C 248.02897,561.72364 249.54542,561.67895 251.68344,561.37374 C 262.73668,559.79585 283.13303,553.33579 316.02719,532.77999 C 351.15027,510.83134 382.54284,518.56064 401.99594,532.43624 C 403.62747,533.59998 405.09326,534.83766 406.58969,536.06124 C 405.52537,531.53959 404.25971,526.83508 402.74594,521.87374 C 399.24303,511.81232 392.98443,506.19258 383.33969,501.87374 C 373.69495,497.5549 360.79105,495.59787 346.90219,495.68624 z" id="path9055"/>
    <path style="fill:#2e3436;fill-opacity:1;fill-rule:nonzero;stroke:none;stroke-width:3;stroke-linecap:butt;stroke-linejoin:miter;marker:none;marker-start:none;marker-mid:none;marker-end:none;stroke-miterlimit:4;stroke-dashoffset:0;stroke-opacity:1;visibility:visible;display:inline;overflow:visible;enable-background:accumulate" d="M 454.97524,590.30267 C 453.77749,603.26731 435.94891,600.99197 434.11648,588.71437 C 434.11648,583.23814 438.22603,578.72161 443.28845,578.79366 C 452.4545,578.92603 454.97524,584.82644 454.97524,590.30267 z" id="path9057" sodipodi:nodetypes="ccsc"/>
    <path sodipodi:nodetypes="ccsc" id="path9060" d="M 453.97524,549.30267 C 452.77749,562.26731 434.94891,559.99197 433.11648,547.71437 C 433.11648,542.23814 437.22603,537.72161 442.28845,537.79366 C 451.4545,537.92603 453.97524,543.82644 453.97524,549.30267 z" style="fill:#2e3436;fill-opacity:1;fill-rule:nonzero;stroke:none;stroke-width:3;stroke-linecap:butt;stroke-linejoin:miter;marker:none;marker-start:none;marker-mid:none;marker-end:none;stroke-miterlimit:4;stroke-dashoffset:0;stroke-opacity:1;visibility:visible;display:inline;overflow:visible;enable-background:accumulate"/>
    <path style="opacity:1;fill:#8f5902;fill-opacity:1;fill-rule:nonzero;stroke:none;stroke-width:3;stroke-linecap:butt;stroke-linejoin:miter;marker:none;marker-start:none;marker-mid:none;marker-end:none;stroke-miterlimit:4;stroke-dasharray:none;stroke-dashoffset:0;stroke-opacity:1;visibility:visible;display:inline;overflow:visible;enable-background:accumulate" d="M 360.11648,454.29395 L 420.11648,392.29395 L 423.11648,402.29395 L 365.57645,456.24882 L 360.11648,454.29395 z" id="path9064" sodipodi:nodetypes="ccccc"/>
    <path sodipodi:type="arc" style="opacity:1;fill:#8f5902;fill-opacity:1;fill-rule:nonzero;stroke:none;stroke-width:3;stroke-linecap:butt;stroke-linejoin:miter;marker:none;marker-start:none;marker-mid:none;marker-end:none;stroke-miterlimit:4;stroke-dasharray:none;stroke-dashoffset:0;stroke-opacity:1;visibility:visible;display:inline;overflow:visible;enable-background:accumulate" id="path9066" sodipodi:cx="491.5" sodipodi:cy="342.36218" sodipodi:rx="13.5" sodipodi:ry="11" d="M 505,342.36218 A 13.5,11 0 1 1 478,342.36218 A 13.5,11 0 1 1 505,342.36218 z" transform="translate(-67.883524,53.931774)"/>
    <path id="path9068" d="M 346.11648,464.29395 L 291.11648,411.29395 L 289.11648,418.29395 L 335.98945,459.83179 L 346.11648,464.29395 z" style="opacity:1;fill:#8f5902;fill-opacity:1;fill-rule:nonzero;stroke:none;stroke-width:3;stroke-linecap:butt;stroke-linejoin:miter;marker:none;marker-start:none;marker-mid:none;marker-end:none;stroke-miterlimit:4;stroke-dasharray:none;stroke-dashoffset:0;stroke-opacity:1;visibility:visible;display:inline;overflow:visible;enable-background:accumulate" sodipodi:nodetypes="ccccc"/>
    <path transform="matrix(-0.8703704,0,0,0.8703704,721.15352,118.23798)" d="M 505,342.36218 A 13.5,11 0 1 1 478,342.36218 A 13.5,11 0 1 1 505,342.36218 z" sodipodi:ry="11" sodipodi:rx="13.5" sodipodi:cy="342.36218" sodipodi:cx="491.5" id="path9070" style="opacity:1;fill:#8f5902;fill-opacity:1;fill-rule:nonzero;stroke:none;stroke-width:3;stroke-linecap:butt;stroke-linejoin:miter;marker:none;marker-start:none;marker-mid:none;marker-end:none;stroke-miterlimit:4;stroke-dasharray:none;stroke-dashoffset:0;stroke-opacity:1;visibility:visible;display:inline;overflow:visible;enable-background:accumulate" sodipodi:type="arc"/>
    <path style="fill:#8f5902;fill-opacity:1;fill-rule:nonzero;stroke:none;stroke-width:3;stroke-linecap:butt;stroke-linejoin:miter;marker:none;marker-start:none;marker-mid:none;marker-end:none;stroke-miterlimit:4;stroke-dashoffset:0;stroke-opacity:1;visibility:visible;display:inline;overflow:visible;enable-background:accumulate" d="M 448.83523,639.96302 C 445.61525,640.17796 436.67142,643.03139 408.99148,653.80677 C 405.26212,655.25855 400.24598,655.77802 393.67898,656.05677 C 387.11198,656.33552 379.10177,656.2287 370.17898,655.86927 C 352.3334,655.15041 330.77586,653.39042 309.92898,651.33802 C 275.72239,647.97035 248.73476,644.51634 238.24148,643.15052 C 271.59083,658.26531 318.40299,666.5724 360.21023,667.68177 C 381.78339,668.25422 402.00822,666.93926 418.24148,663.80677 C 434.38036,660.69249 446.48409,655.57914 451.89773,649.80677 C 458.7932,642.85403 458.14033,640.332 448.83523,639.96302 z" id="path9082" sodipodi:nodetypes="csssscsscc"/>
    <path sodipodi:type="arc" style="opacity:1;fill:#ffffff;fill-opacity:1;fill-rule:nonzero;stroke:none;stroke-width:3;stroke-linecap:butt;stroke-linejoin:miter;marker:none;marker-start:none;marker-mid:none;marker-end:none;stroke-miterlimit:4;stroke-dasharray:none;stroke-dashoffset:0;stroke-opacity:1;visibility:visible;display:inline;overflow:visible;enable-background:accumulate" id="path9074" sodipodi:cx="506.28845" sodipodi:cy="518.49658" sodipodi:rx="3.1819806" sodipodi:ry="8.1317282" d="M 509.47043,518.49658 A 3.1819806,8.1317282 0 1 1 503.10647,518.49658 A 3.1819806,8.1317282 0 1 1 509.47043,518.49658 z" transform="matrix(0.9746978,0.2235266,-0.2235266,0.9746978,66.117366,-71.592966)"/>
    <path transform="matrix(0.9746978,0.2235266,-0.2235266,0.9746978,67.885136,-30.227219)" d="M 509.47043,518.49658 A 3.1819806,8.1317282 0 1 1 503.10647,518.49658 A 3.1819806,8.1317282 0 1 1 509.47043,518.49658 z" sodipodi:ry="8.1317282" sodipodi:rx="3.1819806" sodipodi:cy="518.49658" sodipodi:cx="506.28845" id="path9076" style="opacity:1;fill:#ffffff;fill-opacity:1;fill-rule:nonzero;stroke:none;stroke-width:3;stroke-linecap:butt;stroke-linejoin:miter;marker:none;marker-start:none;marker-mid:none;marker-end:none;stroke-miterlimit:4;stroke-dasharray:none;stroke-dashoffset:0;stroke-opacity:1;visibility:visible;display:inline;overflow:visible;enable-background:accumulate" sodipodi:type="arc"/>
  </g>
</svg>