<?xml version="1.0" encoding="UTF-8" standalone="no"?>
<!DOCTYPE svg PUBLIC "-//W3C//DTD SVG 20010904//EN" "http://www.w3.org/TR/2001/REC-SVG-20010904/DTD/svg10.dtd">
<!-- Created with Inkscape (http://www.inkscape.org/) -->
<svg id="svg1" sodipodi:version="0.32" inkscape:version="0.38.1" width="120.00000pt" height="120.00000pt" sodipodi:docbase="/home/nicu/Desktop/new_smileys" sodipodi:docname="smiley115.svg" xmlns="http://www.w3.org/2000/svg" xmlns:inkscape="http://www.inkscape.org/namespaces/inkscape" xmlns:sodipodi="http://sodipodi.sourceforge.net/DTD/sodipodi-0.dtd" xmlns:xlink="http://www.w3.org/1999/xlink">
  <defs id="defs3">
    <linearGradient id="linearGradient916">
      <stop style="stop-color:#d3eeff;stop-opacity:1.0000000;" offset="0.0000000" id="stop917"/>
      <stop style="stop-color:#91c2ff;stop-opacity:1.0000000;" offset="1.0000000" id="stop918"/>
    </linearGradient>
    <linearGradient id="linearGradient838">
      <stop style="stop-color:#ffffff;stop-opacity:0.50000000;" offset="0.0000000" id="stop839"/>
      <stop style="stop-color:#ffffff;stop-opacity:0.0000000;" offset="1.0000000" id="stop840"/>
    </linearGradient>
    <linearGradient id="linearGradient827">
      <stop style="stop-color:#ffffff;stop-opacity:1.0000000;" offset="0.0000000" id="stop828"/>
      <stop style="stop-color:#ffc613;stop-opacity:1.0000000;" offset="1.0000000" id="stop829"/>
    </linearGradient>
    <radialGradient xlink:href="#linearGradient827" id="radialGradient830" cx="0.43843809" cy="0.24228731" r="0.39870128" fx="0.44613335" fy="0.25009677"/>
    <linearGradient xlink:href="#linearGradient916" id="linearGradient837" x1="0.28333333" y1="0.75781250" x2="1.0083333" y2="0.18750000"/>
    <linearGradient xlink:href="#linearGradient838" id="linearGradient909"/>
  </defs>
  <sodipodi:namedview id="base" pagecolor="#ffffff" bordercolor="#666666" borderopacity="1.0" inkscape:pageopacity="0.0" inkscape:pageshadow="2" inkscape:zoom="2.2973967" inkscape:cx="87.362092" inkscape:cy="49.962783" inkscape:window-width="684" inkscape:window-height="663" inkscape:window-x="437" inkscape:window-y="32"/>
  <path transform="matrix(1.019945,0.000000,0.000000,1.052160,-6.697623,-9.933914)" style="fill:url(#radialGradient830);fill-opacity:1;fill-rule:evenodd;stroke:#000000;stroke-width:2.4132968;stroke-dasharray:none;stroke-linejoin:round;" d="M 130.95732,72.296425 C 130.95732,98.179753 109.27534,119.18651 82.560051,119.18651 C 55.844758,119.18651 34.162781,98.179753 34.162781,72.296425 C 34.162781,46.413097 55.844758,25.406338 82.560051,25.406338 C 109.27534,25.406338 130.95732,46.413097 130.95732,72.296425 z " id="path826"/>
  <g id="g841" transform="translate(-74.48908,36.10290)" style="fill:url(#linearGradient909);">
    <path transform="matrix(0.998802,0.000000,0.000000,1.070454,0.142038,-2.329516)" style="fill:url(#linearGradient909);fill-opacity:1.0000000;fill-rule:evenodd;stroke:#000000;stroke-width:2.4177773;stroke-dasharray:none;stroke-linejoin:round;" d="M 143.01477,21.387184 C 143.01477,27.488255 137.68806,32.439848 131.12479,32.439848 C 124.56151,32.439848 119.23480,27.488255 119.23480,21.387184 C 121.95853,23.926933 124.01676,29.141009 130.58004,29.141009 C 137.14331,29.141009 139.20154,27.484918 143.01477,21.387184 z " id="path832" sodipodi:nodetypes="ccccc"/>
  </g>
  <path style="fill:none;fill-rule:evenodd;stroke:black;stroke-opacity:1;stroke-width:2.5000000;stroke-linejoin:round;stroke-linecap:butt;fill-opacity:0.75;stroke-dasharray:none;" d="M 62.453582,88.876556 C 73.570945,89.824951 82.025879,89.927100 95.421770,88.061492" id="path851" sodipodi:nodetypes="cc"/>
  <text xml:space="preserve" style="fill:black;fill-opacity:1;stroke:none;font-family:Bitstream Vera Sans;font-style:normal;font-weight:normal;font-size:12px;stroke-opacity:1;stroke-width:1pt;stroke-linejoin:miter;stroke-linecap:butt;" x="64.747198" y="32.475674" id="text878"><tspan id="tspan879"/></text>
  <g id="g910" transform="translate(-34.26099,34.83247)" style="fill:url(#linearGradient909);">
    <path transform="matrix(0.998802,0.000000,0.000000,1.070454,0.142038,-2.329516)" style="fill:url(#linearGradient909);fill-opacity:1.0000000;fill-rule:evenodd;stroke:#000000;stroke-width:2.4177773;stroke-dasharray:none;stroke-linejoin:round;" d="M 143.01477,21.387184 C 143.01477,27.488255 137.68806,32.439848 131.12479,32.439848 C 124.56151,32.439848 119.23480,27.488255 119.23480,21.387184 C 121.95853,23.926933 124.01676,29.141009 130.58004,29.141009 C 137.14331,29.141009 139.20154,27.484918 143.01477,21.387184 z " id="path911" sodipodi:nodetypes="ccccc"/>
  </g>
  <path style="font-size:12.000000;font-weight:bold;fill:url(#linearGradient837);stroke:#0055df;stroke-width:2.5000000;stroke-linejoin:round;font-family:Bitstream Vera Sans;stroke-dasharray:none;" d="M 50.418371,6.6850848 C 59.608850,4.5258238 69.283684,4.0939708 77.989808,6.6850848 C 78.708701,10.167553 76.270488,13.320966 73.723856,15.723700 C 72.188675,17.213997 70.510781,18.593164 69.258995,20.291832 C 66.982527,22.746228 63.846649,24.636651 62.371505,27.628335 C 62.371420,29.759394 65.246823,29.840443 66.971071,29.515979 C 69.019657,29.152906 71.087436,29.166146 73.144222,28.965610 C 75.116515,28.967173 77.781866,29.253265 78.588026,31.137258 C 79.201701,33.242387 76.823890,34.995656 74.612692,34.972669 C 70.517933,36.331736 55.029335,37.565394 50.668342,34.617299 C 48.937743,32.995225 50.029858,30.588715 51.307061,29.043238 C 53.335677,26.446422 56.030312,24.349304 58.199155,21.849501 C 59.793534,20.147492 61.378717,18.433908 63.123179,16.850745 C 65.199791,16.260058 66.553365,13.546351 64.848691,12.052503 C 63.036732,11.023650 60.960066,12.464347 58.981258,12.304335 C 56.258664,12.646915 52.785386,12.892628 50.929787,10.690663 C 50.148966,9.4745418 50.416656,8.0183708 50.418371,6.6850848 z " id="path930" sodipodi:nodetypes="ccccccccccccccccc"/>
  <path style="font-size:12.000000;font-weight:bold;fill:url(#linearGradient837);stroke:#0055df;stroke-width:2.5000000;stroke-linejoin:round;font-family:Bitstream Vera Sans;stroke-dasharray:none;" d="M 74.332009,18.497516 C 83.522489,16.338255 93.197319,15.906402 101.90344,18.497516 C 102.62234,21.979984 100.18412,25.133397 97.637489,27.536131 C 96.102309,29.026428 94.424419,30.405595 93.172629,32.104263 C 90.896159,34.558659 87.760279,36.449082 86.285139,39.440766 C 86.285059,41.571825 89.160459,41.652874 90.884709,41.328410 C 92.933289,40.965337 95.001069,40.978577 97.057859,40.778041 C 99.030149,40.779604 101.69550,41.065696 102.50166,42.949689 C 103.11534,45.054819 100.73753,46.808089 98.526329,46.785099 C 94.431569,48.144169 78.942969,49.377829 74.581979,46.429729 C 72.851379,44.807659 73.943489,42.401146 75.220699,40.855669 C 77.249309,38.258853 79.943949,36.161735 82.112789,33.661932 C 83.707169,31.959923 85.292349,30.246339 87.036809,28.663176 C 89.113429,28.072489 90.466999,25.358782 88.762329,23.864934 C 86.950369,22.836081 84.873699,24.276778 82.894889,24.116766 C 80.172299,24.459346 76.699019,24.705059 74.843419,22.503094 C 74.062599,21.286973 74.330289,19.830802 74.332009,18.497516 z " id="path933" sodipodi:nodetypes="ccccccccccccccccc"/>

  <rdf:RDF xmlns="http://web.resource.org/cc/" xmlns:dc="http://purl.org/dc/elements/1.1/" xmlns:rdf="http://www.w3.org/1999/02/22-rdf-syntax-ns#">
  <Work rdf:about="">
    <dc:title>Clipart by Nicu Buculei - smiley111</dc:title>
    <dc:rights>
       <Agent>
         <dc:title>Nicu Buculei</dc:title>
       </Agent>
    </dc:rights>
    <dc:type rdf:resource="http://purl.org/dc/dcmitype/StillImage"/>
    <license rdf:resource="http://web.resource.org/cc/PublicDomain"/>
  </Work>
   
  <License rdf:about="http://web.resource.org/cc/PublicDomain">
     <permits rdf:resource="http://web.resource.org/cc/Reproduction"/>
     <permits rdf:resource="http://web.resource.org/cc/Distribution"/>
     <permits rdf:resource="http://web.resource.org/cc/DerivativeWorks"/>
  </License>

</rdf:RDF>
</svg>